<?xml version="1.0" encoding="UTF-8"?>
<svg width="180px" height="60px" viewBox="0 0 180 60" version="1.1" xmlns="http://www.w3.org/2000/svg" xmlns:xlink="http://www.w3.org/1999/xlink">
    <title>HVAC Logo</title>
    <g id="Logo" stroke="none" stroke-width="1" fill="none" fill-rule="evenodd">
        <g id="HVAC-Logo" transform="translate(10, 10)" fill="#2563EB" fill-rule="nonzero">
            <path d="M0,0 L12,0 L12,16 L28,16 L28,0 L40,0 L40,40 L28,40 L28,24 L12,24 L12,40 L0,40 L0,0 Z" id="H"></path>
            <path d="M50,0 L62,0 L80,40 L68,40 L64,32 L48,32 L44,40 L32,40 L50,0 Z M56,8 L50,24 L62,24 L56,8 Z" id="V"></path>
            <path d="M90,0 L102,0 L102,16 C102,16 110,8 118,8 C126,8 130,16 130,24 L130,40 L118,40 L118,24 C118,20 114,16 110,16 C106,16 102,20 102,24 L102,40 L90,40 L90,0 Z" id="A"></path>
            <path d="M140,8 C148,8 156,8 156,8 L156,16 L140,16 C136,16 132,20 132,24 C132,28 136,32 140,32 L156,32 L156,40 C156,40 148,40 140,40 C132,40 120,32 120,24 C120,16 132,8 140,8 Z" id="C"></path>
        </g>
    </g>
</svg>