<svg width="1200" height="600" viewBox="0 0 1200 600" xmlns="http://www.w3.org/2000/svg">
  <rect width="1200" height="600" fill="#1e3a8a"/>
  <g fill="#ffffff" fill-opacity="0.05">
    <circle cx="100" cy="100" r="80"/>
    <circle cx="1100" cy="500" r="80"/>
    <circle cx="600" cy="300" r="160"/>
    <path d="M850 150 C 900 100, 950 100, 1000 150 S 1050 250, 1100 200" stroke="#ffffff" stroke-opacity="0.1" stroke-width="20" fill="none"/>
    <path d="M200 450 C 250 400, 300 400, 350 450 S 400 550, 450 500" stroke="#ffffff" stroke-opacity="0.1" stroke-width="20" fill="none"/>
  </g>
  <g fill="none" stroke="#f97316" stroke-opacity="0.2" stroke-width="15">
    <path d="M200 150 L 300 150 L 300 250 L 200 250 Z"/>
    <path d="M900 350 L 1000 350 L 1000 450 L 900 450 Z"/>
    <path d="M500 450 L 600 450 L 600 550 L 500 550 Z"/>
    <path d="M700 150 L 800 150 L 800 250 L 700 250 Z"/>
    <path d="M450 150 L 550 150 L 550 250 L 450 250 Z"/>
  </g>
</svg>
